<svg width="252" height="186" viewBox="0 0 252 186" fill="none" xmlns="http://www.w3.org/2000/svg">
<circle cx="164.383" cy="99" r="87" fill="url(#paint0_linear_715_26258)"/>
<circle cx="164" cy="99" r="87" fill="url(#paint1_linear_715_26258)"/>
<path d="M223.2 89H232.772V99.0286" stroke="#5E6974" stroke-width="2" stroke-linecap="round" stroke-linejoin="round"/>
<path d="M162.802 89H153.229V99.0286" stroke="#5E6974" stroke-width="2" stroke-linecap="round" stroke-linejoin="round"/>
<path d="M233 134.129L233 143.702L222.971 143.702" stroke="#5E6974" stroke-width="2" stroke-linecap="round" stroke-linejoin="round"/>
<path d="M153 134.129L153 143.702L163.029 143.702" stroke="#5E6974" stroke-width="2" stroke-linecap="round" stroke-linejoin="round"/>
<path d="M166.797 94.9258H158.472V138.687H166.797V94.9258Z" fill="#5E6974"/>
<path d="M177.445 94.9258H173.247V138.687H177.445V94.9258Z" fill="#5E6974"/>
<path d="M193.272 94.9258H181.745V138.687H193.272V94.9258Z" fill="#5E6974"/>
<path d="M203.024 94.9258H198.826V138.687H203.024V94.9258Z" fill="#5E6974"/>
<path d="M213.685 94.9258H209.487V138.687H213.685V94.9258Z" fill="#5E6974"/>
<path d="M227.35 94.9258H219.025V138.687H227.35V94.9258Z" fill="#5E6974"/>
<path d="M102.153 79.0833L57.2218 134.279L58.8349 139.077C59.4026 140.766 57.645 142.298 56.0493 141.505L23.1618 125.166C21.9042 124.542 21.6652 122.849 22.7005 121.901L84.8323 64.9705L102.153 79.0833Z" fill="#BDC3C8"/>
<path opacity="0.5" d="M84.8294 64.9875L102.216 79.1331L94.4375 88.6678C86.7225 84.3416 79.6982 79.7832 73.7603 75.1891L84.7966 65.0535L84.8294 64.9875Z" fill="#5E6974"/>
<path d="M125.85 46.7001C136.436 51.9593 145.93 57.8661 153.736 63.8011C154.865 64.66 155.208 66.2015 154.576 67.4724L139.973 96.867C139.341 98.1379 137.906 98.7961 136.539 98.4147C127.094 95.7792 116.651 91.7811 106.066 86.5219C73.2323 70.2098 51.0844 48.1089 56.5545 37.0986C62.0247 26.0882 93.0165 30.388 125.85 46.7001Z" fill="#BDC3C8"/>
<defs>
<linearGradient id="paint0_linear_715_26258" x1="145.383" y1="-284" x2="164.383" y2="255.5" gradientUnits="userSpaceOnUse">
<stop stop-color="#ADB9BF"/>
<stop offset="1" stop-color="#F1F4F6" stop-opacity="0"/>
</linearGradient>
<linearGradient id="paint1_linear_715_26258" x1="145" y1="-284" x2="164" y2="255.5" gradientUnits="userSpaceOnUse">
<stop stop-color="#ADB9BF"/>
<stop offset="1" stop-color="#F1F4F6" stop-opacity="0"/>
</linearGradient>
</defs>
</svg>
